# xmcd
#
# Track frame offsets:
#	150
#	19698
#	40746
#	54369
#	72267
#	85515
#	100713
#	115986
#	131559
#	144207
#	160605
#	173103
#	191001
#
# Disc length: 2758 seconds
#
# Revision: 1
# Processed by: cddbd v1.5.2PL0 Copyright (c) Steve Scherf et al.
# Submitted via: audiograbber 1.83.01
#
DISCID=9c0ac40d
DTITLE=Norah Jones - not too late
DYEAR=1900
DGENRE=
TTITLE0=Wish I Could
TTITLE1=Sinkin' Soon
TTITLE2=The Sun Doesn't Like You
TTITLE3=Until The End
TTITLE4=Not My Friend
TTITLE5=Thinking About You
TTITLE6=Broken
TTITLE7=My Dear Country
TTITLE8=Wake Me Up
TTITLE9=Be My Somebody
TTITLE10=Little Moon
TTITLE11=Rosie's Lullaby
TTITLE12=Not Too Late
EXTD=
EXTT0=
EXTT1=
EXTT2=
EXTT3=
EXTT4=
EXTT5=
EXTT6=
EXTT7=
EXTT8=
EXTT9=
EXTT10=
EXTT11=
EXTT12=
PLAYORDER=
